Ubuntu-Bold.ufo
<glyph name="hyphen" format="2">
  <advance width="340"/>
  <unicode hex="002D"/>
  <outline>
    <contour>
      <point x="25" y="231" type="line"/>
      <point x="315" y="231" type="line"/>
      <point x="315" y="366" type="line"/>
      <point x="25" y="366" type="line"/>
    </contour>
  </outline>
</glyph>
<glyph name="question" format="2">
  <advance width="455"/>
  <unicode hex="003F"/>
  <outline>
    <contour>
      <point x="133" y="221" type="curve"/>
      <point x="265" y="221" type="line"/>
      <point x="264" y="229"/>
      <point x="264" y="242"/>
      <point x="264" y="247" type="curve" smooth="yes"/>
      <point x="264" y="352"/>
      <point x="430" y="393"/>
      <point x="430" y="533" type="curve" smooth="yes"/>
      <point x="430" y="608"/>
      <point x="387" y="709"/>
      <point x="216" y="709" type="curve" smooth="yes"/>
      <point x="148" y="709"/>
      <point x="72" y="690"/>
      <point x="20" y="657" type="curve"/>
      <point x="62" y="544" type="line"/>
      <point x="114" y="571"/>
      <point x="153" y="582"/>
      <point x="201" y="582" type="curve" smooth="yes"/>
      <point x="249" y="582"/>
      <point x="274" y="556"/>
      <point x="274" y="524" type="curve" smooth="yes"/>
      <point x="274" y="446"/>
      <point x="130" y="400"/>
      <point x="130" y="265" type="curve" smooth="yes"/>
      <point x="130" y="253"/>
      <point x="130" y="234"/>
    </contour>
    <contour>
      <point x="201" y="-13" type="curve" smooth="yes"/>
      <point x="249" y="-13"/>
      <point x="294" y="20"/>
      <point x="294" y="79" type="curve" smooth="yes"/>
      <point x="294" y="138"/>
      <point x="249" y="171"/>
      <point x="201" y="171" type="curve" smooth="yes"/>
      <point x="153" y="171"/>
      <point x="108" y="138"/>
      <point x="108" y="79" type="curve" smooth="yes"/>
      <point x="108" y="20"/>
      <point x="153" y="-13"/>
    </contour>
  </outline>
</glyph>
<glyph name="F" format="2">
  <advance width="574"/>
  <unicode hex="0046"/>
  <anchor x="287" y="0" name="bottom"/>
  <anchor x="287" y="693" name="top"/>
  <outline>
    <contour>
      <point x="80" y="0" type="line"/>
      <point x="236" y="0" type="line"/>
      <point x="236" y="286" type="line"/>
      <point x="510" y="286" type="line"/>
      <point x="510" y="417" type="line"/>
      <point x="236" y="417" type="line"/>
      <point x="236" y="562" type="line"/>
      <point x="544" y="562" type="line"/>
      <point x="544" y="693" type="line"/>
      <point x="80" y="693" type="line"/>
    </contour>
  </outline>
</glyph>
<glyph name="O" format="2">
  <advance width="790"/>
  <unicode hex="004F"/>
  <anchor x="395" y="0" name="bottom"/>
  <anchor x="395" y="347" name="center"/>
  <anchor x="711" y="10" name="ogonek"/>
  <anchor x="395" y="693" name="top"/>
  <anchor x="20" y="693" name="topleft"/>
  <anchor x="770" y="693" name="topright"/>
  <outline>
    <contour>
      <point x="395" y="-14" type="curve" smooth="yes"/>
      <point x="591" y="-14"/>
      <point x="740" y="110"/>
      <point x="740" y="347" type="curve" smooth="yes"/>
      <point x="740" y="584"/>
      <point x="585" y="709"/>
      <point x="395" y="709" type="curve" smooth="yes"/>
      <point x="211" y="709"/>
      <point x="50" y="584"/>
      <point x="50" y="347" type="curve" smooth="yes"/>
      <point x="50" y="110"/>
      <point x="205" y="-14"/>
    </contour>
    <contour>
      <point x="395" y="123" type="curve" smooth="yes"/>
      <point x="279" y="123"/>
      <point x="211" y="212"/>
      <point x="211" y="347" type="curve" smooth="yes"/>
      <point x="211" y="480"/>
      <point x="279" y="572"/>
      <point x="395" y="572" type="curve" smooth="yes"/>
      <point x="511" y="572"/>
      <point x="579" y="483"/>
      <point x="579" y="347" type="curve" smooth="yes"/>
      <point x="579" y="212"/>
      <point x="511" y="123"/>
    </contour>
  </outline>
</glyph>
<glyph name="f" format="2">
  <advance width="422"/>
  <unicode hex="0066"/>
  <anchor x="211" y="0" name="bottom"/>
  <anchor x="211" y="776" name="top"/>
  <outline>
    <contour>
      <point x="70" y="0" type="line"/>
      <point x="219" y="0" type="line"/>
      <point x="219" y="402" type="line"/>
      <point x="403" y="402" type="line"/>
      <point x="403" y="526" type="line"/>
      <point x="219" y="526" type="line"/>
      <point x="219" y="552" type="line" smooth="yes"/>
      <point x="219" y="608"/>
      <point x="240" y="650"/>
      <point x="313" y="650" type="curve" smooth="yes"/>
      <point x="340" y="650"/>
      <point x="373" y="644"/>
      <point x="400" y="632" type="curve"/>
      <point x="429" y="751" type="line"/>
      <point x="404" y="762"/>
      <point x="354" y="776"/>
      <point x="298" y="776" type="curve" smooth="yes"/>
      <point x="147" y="776"/>
      <point x="70" y="690"/>
      <point x="70" y="554" type="curve" smooth="yes"/>
    </contour>
  </outline>
</glyph>
<glyph name="o" format="2">
  <advance width="607"/>
  <unicode hex="006F"/>
  <anchor x="304" y="0" name="bottom"/>
  <anchor x="304" y="263" name="center"/>
  <anchor x="546" y="10" name="ogonek"/>
  <anchor x="304" y="526" name="top"/>
  <anchor x="587" y="526" name="topright"/>
  <outline>
    <contour>
      <point x="304" y="-14" type="curve" smooth="yes"/>
      <point x="461" y="-14"/>
      <point x="562" y="98"/>
      <point x="562" y="264" type="curve" smooth="yes"/>
      <point x="562" y="429"/>
      <point x="456" y="540"/>
      <point x="304" y="540" type="curve" smooth="yes"/>
      <point x="155" y="540"/>
      <point x="45" y="429"/>
      <point x="45" y="264" type="curve" smooth="yes"/>
      <point x="45" y="98"/>
      <point x="150" y="-14"/>
    </contour>
    <contour>
      <point x="304" y="114" type="curve" smooth="yes"/>
      <point x="236" y="114"/>
      <point x="197" y="172"/>
      <point x="197" y="264" type="curve" smooth="yes"/>
      <point x="197" y="356"/>
      <point x="236" y="412"/>
      <point x="304" y="412" type="curve" smooth="yes"/>
      <point x="372" y="412"/>
      <point x="410" y="356"/>
      <point x="410" y="264" type="curve" smooth="yes"/>
      <point x="410" y="172"/>
      <point x="372" y="114"/>
    </contour>
  </outline>
</glyph>
<glyph name="currency" format="2">
  <advance width="568"/>
  <unicode hex="00A4"/>
  <outline>
    <contour>
      <point x="118" y="96" type="line"/>
      <point x="192" y="168" type="line"/>
      <point x="221" y="155"/>
      <point x="251" y="150"/>
      <point x="284" y="150" type="curve" smooth="yes"/>
      <point x="319" y="150"/>
      <point x="347" y="155"/>
      <point x="375" y="168" type="curve"/>
      <point x="449" y="96" type="line"/>
      <point x="543" y="188" type="line"/>
      <point x="471" y="257" type="line"/>
      <point x="485" y="283"/>
      <point x="492" y="313"/>
      <point x="492" y="347" type="curve" smooth="yes"/>
      <point x="492" y="381"/>
      <point x="485" y="411"/>
      <point x="471" y="437" type="curve"/>
      <point x="543" y="506" type="line"/>
      <point x="450" y="597" type="line"/>
      <point x="376" y="526" type="line"/>
      <point x="347" y="539"/>
      <point x="317" y="544"/>
      <point x="284" y="544" type="curve" smooth="yes"/>
      <point x="249" y="544"/>
      <point x="221" y="539"/>
      <point x="193" y="526" type="curve"/>
      <point x="119" y="598" type="line"/>
      <point x="25" y="506" type="line"/>
      <point x="97" y="437" type="line"/>
      <point x="83" y="411"/>
      <point x="76" y="381"/>
      <point x="76" y="347" type="curve" smooth="yes"/>
      <point x="76" y="313"/>
      <point x="83" y="283"/>
      <point x="97" y="257" type="curve"/>
      <point x="25" y="187" type="line"/>
    </contour>
    <contour>
      <point x="284" y="260" type="curve" smooth="yes"/>
      <point x="239" y="260"/>
      <point x="202" y="290"/>
      <point x="202" y="347" type="curve" smooth="yes"/>
      <point x="202" y="404"/>
      <point x="239" y="434"/>
      <point x="284" y="434" type="curve" smooth="yes"/>
      <point x="329" y="434"/>
      <point x="366" y="404"/>
      <point x="366" y="347" type="curve" smooth="yes"/>
      <point x="366" y="290"/>
      <point x="329" y="260"/>
    </contour>
  </outline>
</glyph>
<glyph name="yen" format="2">
  <advance width="568"/>
  <unicode hex="00A5"/>
  <outline>
    <contour>
      <point x="209" y="0" type="line"/>
      <point x="360" y="0" type="line"/>
      <point x="360" y="111" type="line"/>
      <point x="508" y="111" type="line"/>
      <point x="508" y="210" type="line"/>
      <point x="360" y="210" type="line"/>
      <point x="360" y="275" type="line"/>
      <point x="508" y="275" type="line"/>
      <point x="508" y="374" type="line"/>
      <point x="408" y="374" type="line"/>
      <point x="469" y="482"/>
      <point x="522" y="590"/>
      <point x="573" y="693" type="curve"/>
      <point x="404" y="693" type="line"/>
      <point x="364" y="604"/>
      <point x="331" y="507"/>
      <point x="287" y="419" type="curve"/>
      <point x="242" y="507"/>
      <point x="206" y="601"/>
      <point x="165" y="693" type="curve"/>
      <point x="-5" y="693" type="line"/>
      <point x="35" y="604"/>
      <point x="105" y="475"/>
      <point x="161" y="374" type="curve"/>
      <point x="61" y="374" type="line"/>
      <point x="61" y="275" type="line"/>
      <point x="209" y="275" type="line"/>
      <point x="209" y="210" type="line"/>
      <point x="61" y="210" type="line"/>
      <point x="61" y="111" type="line"/>
      <point x="209" y="111" type="line"/>
    </contour>
  </outline>
</glyph>
<glyph name="section" format="2">
  <advance width="515"/>
  <unicode hex="00A7"/>
  <outline>
    <contour>
      <point x="249" y="-109" type="curve" smooth="yes"/>
      <point x="393" y="-109"/>
      <point x="465" y="-55"/>
      <point x="465" y="54" type="curve" smooth="yes"/>
      <point x="465" y="103"/>
      <point x="449" y="138"/>
      <point x="408" y="169" type="curve"/>
      <point x="454" y="210"/>
      <point x="482" y="241"/>
      <point x="482" y="300" type="curve" smooth="yes"/>
      <point x="482" y="409"/>
      <point x="411" y="448"/>
      <point x="294" y="488" type="curve" smooth="yes"/>
      <point x="234" y="508"/>
      <point x="215" y="521"/>
      <point x="215" y="549" type="curve" smooth="yes"/>
      <point x="215" y="572"/>
      <point x="233" y="583"/>
      <point x="284" y="583" type="curve" smooth="yes"/>
      <point x="344" y="583"/>
      <point x="387" y="572"/>
      <point x="430" y="553" type="curve"/>
      <point x="467" y="673" type="line"/>
      <point x="415" y="694"/>
      <point x="346" y="709"/>
      <point x="285" y="709" type="curve" smooth="yes"/>
      <point x="144" y="709"/>
      <point x="66" y="649"/>
      <point x="66" y="546" type="curve" smooth="yes"/>
      <point x="66" y="509"/>
      <point x="82" y="477"/>
      <point x="114" y="450" type="curve"/>
      <point x="71" y="409"/>
      <point x="37" y="371"/>
      <point x="37" y="308" type="curve" smooth="yes"/>
      <point x="37" y="188"/>
      <point x="120" y="152"/>
      <point x="225" y="117" type="curve" smooth="yes"/>
      <point x="297" y="93"/>
      <point x="316" y="82"/>
      <point x="316" y="55" type="curve" smooth="yes"/>
      <point x="316" y="27"/>
      <point x="290" y="17"/>
      <point x="241" y="17" type="curve" smooth="yes"/>
      <point x="170" y="17"/>
      <point x="127" y="30"/>
      <point x="65" y="54" type="curve"/>
      <point x="28" y="-65" type="line"/>
      <point x="75" y="-89"/>
      <point x="146" y="-109"/>
    </contour>
    <contour>
      <point x="307" y="218" type="curve"/>
      <point x="291" y="224"/>
      <point x="276" y="229"/>
      <point x="262" y="234" type="curve" smooth="yes"/>
      <point x="201" y="257"/>
      <point x="171" y="277"/>
      <point x="171" y="319" type="curve" smooth="yes"/>
      <point x="171" y="342"/>
      <point x="187" y="365"/>
      <point x="208" y="384" type="curve"/>
      <point x="221" y="380"/>
      <point x="233" y="375"/>
      <point x="244" y="371" type="curve" smooth="yes"/>
      <point x="311" y="346"/>
      <point x="344" y="327"/>
      <point x="344" y="283" type="curve" smooth="yes"/>
      <point x="344" y="260"/>
      <point x="328" y="237"/>
    </contour>
  </outline>
</glyph>
<glyph name="Aogonek" format="2">
  <advance width="721"/>
  <unicode hex="0104"/>
  <outline>
    <contour>
      <point x="632" y="-221" type="curve" smooth="yes"/>
      <point x="663" y="-221"/>
      <point x="704" y="-216"/>
      <point x="731" y="-205" type="curve"/>
      <point x="719" y="-105" type="line"/>
      <point x="696" y="-112"/>
      <point x="680" y="-113"/>
      <point x="668" y="-113" type="curve" smooth="yes"/>
      <point x="645" y="-113"/>
      <point x="638" y="-103"/>
      <point x="638" y="-88" type="curve" smooth="yes"/>
      <point x="638" y="-60"/>
      <point x="692" y="-14"/>
      <point x="711" y="0" type="curve"/>
      <point x="604" y="304"/>
      <point x="526" y="503"/>
      <point x="435" y="693" type="curve"/>
      <point x="286" y="693" type="line"/>
      <point x="193" y="501"/>
      <point x="114" y="298"/>
      <point x="10" y="0" type="curve"/>
      <point x="172" y="0" type="line"/>
      <point x="187" y="48"/>
      <point x="206" y="99"/>
      <point x="223" y="150" type="curve"/>
      <point x="493" y="150" type="line"/>
      <point x="510" y="99"/>
      <point x="529" y="48"/>
      <point x="544" y="0" type="curve"/>
      <point x="592" y="0" type="line"/>
      <point x="557" y="-27"/>
      <point x="507" y="-76"/>
      <point x="507" y="-130" type="curve" smooth="yes"/>
      <point x="507" y="-185"/>
      <point x="543" y="-221"/>
    </contour>
    <contour>
      <point x="259" y="274" type="line"/>
      <point x="302" y="394"/>
      <point x="344" y="496"/>
      <point x="357" y="536" type="curve"/>
      <point x="373" y="496"/>
      <point x="413" y="394"/>
      <point x="456" y="274" type="curve"/>
    </contour>
  </outline>
</glyph>
<glyph name="aogonek" format="2">
  <advance width="553"/>
  <unicode hex="0105"/>
  <outline>
    <contour>
      <point x="391" y="-221" type="curve" smooth="yes"/>
      <point x="422" y="-221"/>
      <point x="463" y="-216"/>
      <point x="490" y="-205" type="curve"/>
      <point x="478" y="-105" type="line"/>
      <point x="455" y="-112"/>
      <point x="439" y="-113"/>
      <point x="427" y="-113" type="curve" smooth="yes"/>
      <point x="404" y="-113"/>
      <point x="397" y="-103"/>
      <point x="397" y="-88" type="curve" smooth="yes"/>
      <point x="397" y="-62"/>
      <point x="443" y="-20"/>
      <point x="488" y="15" type="curve"/>
      <point x="488" y="325" type="line" smooth="yes"/>
      <point x="488" y="457"/>
      <point x="435" y="540"/>
      <point x="259" y="540" type="curve" smooth="yes"/>
      <point x="190" y="540"/>
      <point x="119" y="526"/>
      <point x="84" y="515" type="curve"/>
      <point x="103" y="395" type="line"/>
      <point x="139" y="408"/>
      <point x="191" y="416"/>
      <point x="242" y="416" type="curve" smooth="yes"/>
      <point x="318" y="416"/>
      <point x="345" y="383"/>
      <point x="345" y="332" type="curve" smooth="yes"/>
      <point x="345" y="318" type="line"/>
      <point x="326" y="323"/>
      <point x="296" y="327"/>
      <point x="257" y="327" type="curve" smooth="yes"/>
      <point x="142" y="327"/>
      <point x="35" y="286"/>
      <point x="35" y="162" type="curve" smooth="yes"/>
      <point x="35" y="34"/>
      <point x="125" y="-11"/>
      <point x="261" y="-11" type="curve" smooth="yes"/>
      <point x="288" y="-11"/>
      <point x="317" y="-11"/>
      <point x="340" y="-8" type="curve"/>
      <point x="305" y="-38"/>
      <point x="266" y="-82"/>
      <point x="266" y="-130" type="curve" smooth="yes"/>
      <point x="266" y="-185"/>
      <point x="302" y="-221"/>
    </contour>
    <contour>
      <point x="271" y="104" type="curve" smooth="yes"/>
      <point x="216" y="104"/>
      <point x="183" y="119"/>
      <point x="183" y="166" type="curve" smooth="yes"/>
      <point x="183" y="215"/>
      <point x="229" y="227"/>
      <point x="285" y="227" type="curve" smooth="yes"/>
      <point x="305" y="227"/>
      <point x="333" y="224"/>
      <point x="345" y="221" type="curve"/>
      <point x="345" y="108" type="line"/>
      <point x="329" y="105"/>
      <point x="300" y="104"/>
    </contour>
  </outline>
</glyph>
<glyph name="dcroat" format="2">
  <advance width="606"/>
  <unicode hex="0111"/>
  <outline>
    <contour>
      <point x="319" y="-13" type="curve" smooth="yes"/>
      <point x="391" y="-13"/>
      <point x="481" y="1"/>
      <point x="534" y="17" type="curve"/>
      <point x="534" y="596" type="line"/>
      <point x="596" y="596" type="line"/>
      <point x="596" y="689" type="line"/>
      <point x="534" y="689" type="line"/>
      <point x="534" y="776" type="line"/>
      <point x="385" y="752" type="line"/>
      <point x="385" y="689" type="line"/>
      <point x="242" y="689" type="line"/>
      <point x="242" y="596" type="line"/>
      <point x="385" y="596" type="line"/>
      <point x="385" y="500" type="line"/>
      <point x="352" y="515"/>
      <point x="321" y="523"/>
      <point x="280" y="523" type="curve" smooth="yes"/>
      <point x="132" y="523"/>
      <point x="45" y="415"/>
      <point x="45" y="253" type="curve" smooth="yes"/>
      <point x="45" y="93"/>
      <point x="146" y="-13"/>
    </contour>
    <contour>
      <point x="320" y="114" type="curve" smooth="yes"/>
      <point x="240" y="114"/>
      <point x="197" y="176"/>
      <point x="197" y="260" type="curve" smooth="yes"/>
      <point x="197" y="347"/>
      <point x="232" y="397"/>
      <point x="303" y="397" type="curve" smooth="yes"/>
      <point x="334" y="397"/>
      <point x="366" y="388"/>
      <point x="385" y="376" type="curve"/>
      <point x="385" y="119" type="line"/>
      <point x="370" y="116"/>
      <point x="347" y="114"/>
    </contour>
  </outline>
</glyph>
<glyph name="Hbar" format="2">
  <advance width="756"/>
  <unicode hex="0126"/>
  <outline>
    <contour>
      <point x="91" y="0" type="line"/>
      <point x="247" y="0" type="line"/>
      <point x="247" y="284" type="line"/>
      <point x="509" y="284" type="line"/>
      <point x="509" y="0" type="line"/>
      <point x="665" y="0" type="line"/>
      <point x="665" y="502" type="line"/>
      <point x="746" y="502" type="line"/>
      <point x="746" y="612" type="line"/>
      <point x="665" y="612" type="line"/>
      <point x="665" y="693" type="line"/>
      <point x="509" y="693" type="line"/>
      <point x="509" y="612" type="line"/>
      <point x="247" y="612" type="line"/>
      <point x="247" y="693" type="line"/>
      <point x="91" y="693" type="line"/>
      <point x="91" y="612" type="line"/>
      <point x="10" y="612" type="line"/>
      <point x="10" y="502" type="line"/>
      <point x="91" y="502" type="line"/>
    </contour>
    <contour>
      <point x="247" y="418" type="line"/>
      <point x="247" y="502" type="line"/>
      <point x="509" y="502" type="line"/>
      <point x="509" y="418" type="line"/>
    </contour>
  </outline>
</glyph>
<glyph name="scedilla" format="2">
  <advance width="485"/>
  <unicode hex="015F"/>
  <outline>
    <contour>
      <point x="190" y="-221" type="curve" smooth="yes"/>
      <point x="273" y="-221"/>
      <point x="328" y="-187"/>
      <point x="328" y="-123" type="curve" smooth="yes"/>
      <point x="328" y="-92"/>
      <point x="315" y="-61"/>
      <point x="272" y="-40" type="curve"/>
      <point x="275" y="-32"/>
      <point x="279" y="-20"/>
      <point x="286" y="-9" type="curve"/>
      <point x="387" y="6"/>
      <point x="444" y="57"/>
      <point x="444" y="144" type="curve" smooth="yes"/>
      <point x="444" y="232"/>
      <point x="410" y="273"/>
      <point x="279" y="321" type="curve" smooth="yes"/>
      <point x="214" y="345"/>
      <point x="200" y="358"/>
      <point x="200" y="381" type="curve" smooth="yes"/>
      <point x="200" y="407"/>
      <point x="223" y="420"/>
      <point x="270" y="420" type="curve" smooth="yes"/>
      <point x="321" y="420"/>
      <point x="360" y="409"/>
      <point x="395" y="397" type="curve"/>
      <point x="421" y="513" type="line"/>
      <point x="386" y="526"/>
      <point x="323" y="540"/>
      <point x="259" y="540" type="curve" smooth="yes"/>
      <point x="131" y="540"/>
      <point x="53" y="479"/>
      <point x="53" y="380" type="curve" smooth="yes"/>
      <point x="53" y="278"/>
      <point x="114" y="243"/>
      <point x="207" y="208" type="curve" smooth="yes"/>
      <point x="267" y="185"/>
      <point x="296" y="170"/>
      <point x="296" y="146" type="curve" smooth="yes"/>
      <point x="296" y="115"/>
      <point x="276" y="107"/>
      <point x="221" y="107" type="curve" smooth="yes"/>
      <point x="169" y="107"/>
      <point x="115" y="119"/>
      <point x="64" y="139" type="curve"/>
      <point x="39" y="18" type="line"/>
      <point x="60" y="9"/>
      <point x="110" y="-8"/>
      <point x="185" y="-13" type="curve"/>
      <point x="177" y="-32"/>
      <point x="168" y="-52"/>
      <point x="163" y="-67" type="curve"/>
      <point x="206" y="-77"/>
      <point x="219" y="-91"/>
      <point x="218" y="-107" type="curve" smooth="yes"/>
      <point x="217" y="-126"/>
      <point x="201" y="-132"/>
      <point x="182" y="-132" type="curve" smooth="yes"/>
      <point x="158" y="-132"/>
      <point x="129" y="-124"/>
      <point x="120" y="-121" type="curve"/>
      <point x="102" y="-208" type="line"/>
      <point x="131" y="-216"/>
      <point x="161" y="-221"/>
    </contour>
  </outline>
</glyph>
<glyph name="uni01A7" format="2">
  <advance width="582"/>
  <unicode hex="01A7"/>
  <outline>
    <contour>
      <point x="313" y="-14" type="curve" smooth="yes"/>
      <point x="436" y="-14"/>
      <point x="509" y="18"/>
      <point x="545" y="39" type="curve"/>
      <point x="501" y="163" type="line"/>
      <point x="460" y="140"/>
      <point x="401" y="119"/>
      <point x="313" y="119" type="curve" smooth="yes"/>
      <point x="225" y="119"/>
      <point x="201" y="149"/>
      <point x="201" y="191" type="curve" smooth="yes"/>
      <point x="201" y="236"/>
      <point x="239" y="261"/>
      <point x="343" y="296" type="curve"/>
      <point x="434" y="328"/>
      <point x="533" y="373"/>
      <point x="533" y="501" type="curve" smooth="yes"/>
      <point x="533" y="629"/>
      <point x="434" y="709"/>
      <point x="278" y="709" type="curve" smooth="yes"/>
      <point x="185" y="709"/>
      <point x="117" y="685"/>
      <point x="73" y="661" type="curve"/>
      <point x="118" y="538" type="line"/>
      <point x="157" y="558"/>
      <point x="201" y="576"/>
      <point x="268" y="576" type="curve" smooth="yes"/>
      <point x="343" y="576"/>
      <point x="373" y="556"/>
      <point x="373" y="513" type="curve" smooth="yes"/>
      <point x="373" y="463"/>
      <point x="321" y="445"/>
      <point x="253" y="421" type="curve"/>
      <point x="109" y="368"/>
      <point x="40" y="324"/>
      <point x="40" y="190" type="curve" smooth="yes"/>
      <point x="40" y="61"/>
      <point x="130" y="-14"/>
    </contour>
  </outline>
</glyph>
<glyph name="uni0225" format="2">
  <advance width="500"/>
  <unicode hex="0225"/>
  <outline>
    <contour>
      <point x="301" y="-185" type="curve" smooth="yes"/>
      <point x="408" y="-185"/>
      <point x="470" y="-131"/>
      <point x="470" y="-22" type="curve" smooth="yes"/>
      <point x="470" y="124" type="line"/>
      <point x="216" y="124" type="line"/>
      <point x="293" y="236"/>
      <point x="417" y="372"/>
      <point x="465" y="426" type="curve"/>
      <point x="465" y="526" type="line"/>
      <point x="47" y="526" type="line"/>
      <point x="47" y="402" type="line"/>
      <point x="271" y="402" type="line"/>
      <point x="200" y="317"/>
      <point x="91" y="184"/>
      <point x="35" y="88" type="curve"/>
      <point x="35" y="0" type="line"/>
      <point x="346" y="0" type="line"/>
      <point x="346" y="-24" type="line" smooth="yes"/>
      <point x="346" y="-59"/>
      <point x="323" y="-74"/>
      <point x="288" y="-74" type="curve" smooth="yes"/>
      <point x="264" y="-74"/>
      <point x="251" y="-73"/>
      <point x="232" y="-66" type="curve"/>
      <point x="213" y="-172" type="line"/>
      <point x="244" y="-183"/>
      <point x="284" y="-185"/>
    </contour>
  </outline>
</glyph>
<glyph name="uni0229" format="2">
  <advance width="584"/>
  <unicode hex="0229"/>
  <outline>
    <contour>
      <point x="260" y="-221" type="curve" smooth="yes"/>
      <point x="343" y="-221"/>
      <point x="398" y="-187"/>
      <point x="398" y="-123" type="curve" smooth="yes"/>
      <point x="398" y="-92"/>
      <point x="385" y="-61"/>
      <point x="342" y="-40" type="curve"/>
      <point x="346" y="-31"/>
      <point x="350" y="-22"/>
      <point x="354" y="-13" type="curve"/>
      <point x="418" y="-9"/>
      <point x="481" y="4"/>
      <point x="508" y="19" type="curve"/>
      <point x="488" y="140" type="line"/>
      <point x="455" y="125"/>
      <point x="398" y="114"/>
      <point x="343" y="114" type="curve" smooth="yes"/>
      <point x="258" y="114"/>
      <point x="205" y="153"/>
      <point x="198" y="214" type="curve"/>
      <point x="536" y="214" type="line"/>
      <point x="537" y="230"/>
      <point x="539" y="253"/>
      <point x="539" y="270" type="curve" smooth="yes"/>
      <point x="539" y="447"/>
      <point x="446" y="540"/>
      <point x="297" y="540" type="curve" smooth="yes"/>
      <point x="169" y="540"/>
      <point x="45" y="445"/>
      <point x="45" y="259" type="curve" smooth="yes"/>
      <point x="45" y="123"/>
      <point x="112" y="16"/>
      <point x="257" y="-8" type="curve"/>
      <point x="248" y="-27"/>
      <point x="238" y="-51"/>
      <point x="233" y="-67" type="curve"/>
      <point x="276" y="-77"/>
      <point x="289" y="-91"/>
      <point x="288" y="-107" type="curve" smooth="yes"/>
      <point x="287" y="-126"/>
      <point x="271" y="-132"/>
      <point x="252" y="-132" type="curve" smooth="yes"/>
      <point x="228" y="-132"/>
      <point x="199" y="-124"/>
      <point x="190" y="-121" type="curve"/>
      <point x="172" y="-208" type="line"/>
      <point x="201" y="-216"/>
      <point x="231" y="-221"/>
    </contour>
    <contour>
      <point x="198" y="316" type="line"/>
      <point x="206" y="368"/>
      <point x="231" y="417"/>
      <point x="299" y="417" type="curve" smooth="yes"/>
      <point x="367" y="417"/>
      <point x="392" y="366"/>
      <point x="395" y="316" type="curve"/>
    </contour>
  </outline>
</glyph>
<glyph name="dotaccent" format="2">
  <advance width="246"/>
  <unicode hex="02D9"/>
  <outline>
    <contour>
      <point x="123" y="600" type="curve" smooth="yes"/>
      <point x="166" y="600"/>
      <point x="202" y="630"/>
      <point x="202" y="678" type="curve" smooth="yes"/>
      <point x="202" y="726"/>
      <point x="166" y="756"/>
      <point x="123" y="756" type="curve" smooth="yes"/>
      <point x="80" y="756"/>
      <point x="44" y="726"/>
      <point x="44" y="678" type="curve" smooth="yes"/>
      <point x="44" y="630"/>
      <point x="80" y="600"/>
    </contour>
  </outline>
</glyph>
<glyph name="tonos" format="2">
  <advance width="448"/>
  <unicode hex="0384"/>
  <anchor x="238" y="776" name="_top"/>
  <outline>
    <contour>
      <point x="203" y="582" type="line"/>
      <point x="348" y="747" type="line"/>
      <point x="254" y="819" type="line"/>
      <point x="127" y="638" type="line"/>
    </contour>
  </outline>
</glyph>
<glyph name="alpha" format="2">
  <advance width="618"/>
  <unicode hex="03B1"/>
  <anchor x="309" y="526" name="top"/>
  <outline>
    <contour>
      <point x="278" y="-11" type="curve" smooth="yes"/>
      <point x="350" y="-11"/>
      <point x="402" y="18"/>
      <point x="430" y="39" type="curve"/>
      <point x="462" y="7"/>
      <point x="510" y="-11"/>
      <point x="583" y="-11" type="curve"/>
      <point x="603" y="113" type="line"/>
      <point x="546" y="118"/>
      <point x="526" y="131"/>
      <point x="526" y="198" type="curve" smooth="yes"/>
      <point x="526" y="508" type="line"/>
      <point x="471" y="524"/>
      <point x="388" y="538"/>
      <point x="315" y="538" type="curve" smooth="yes"/>
      <point x="147" y="538"/>
      <point x="45" y="426"/>
      <point x="45" y="263" type="curve" smooth="yes"/>
      <point x="45" y="91"/>
      <point x="129" y="-11"/>
    </contour>
    <contour>
      <point x="299" y="114" type="curve" smooth="yes"/>
      <point x="235" y="114"/>
      <point x="196" y="163"/>
      <point x="196" y="259" type="curve" smooth="yes"/>
      <point x="196" y="351"/>
      <point x="240" y="411"/>
      <point x="316" y="411" type="curve" smooth="yes"/>
      <point x="347" y="411"/>
      <point x="361" y="409"/>
      <point x="378" y="406" type="curve"/>
      <point x="378" y="213" type="line" smooth="yes"/>
      <point x="378" y="186"/>
      <point x="380" y="162"/>
      <point x="384" y="139" type="curve"/>
      <point x="361" y="124"/>
      <point x="334" y="114"/>
    </contour>
  </outline>
</glyph>
<glyph name="gamma" format="2">
  <advance width="557"/>
  <unicode hex="03B3"/>
  <outline>
    <contour>
      <point x="196" y="-185" type="curve"/>
      <point x="345" y="-185" type="line"/>
      <point x="338" y="-138"/>
      <point x="329" y="-76"/>
      <point x="317" y="-5" type="curve"/>
      <point x="406" y="151"/>
      <point x="489" y="319"/>
      <point x="537" y="526" type="curve"/>
      <point x="383" y="526" type="line"/>
      <point x="361" y="418"/>
      <point x="311" y="255"/>
      <point x="268" y="164" type="curve"/>
      <point x="241" y="278"/>
      <point x="195" y="438"/>
      <point x="166" y="526" type="curve"/>
      <point x="8" y="526" type="line"/>
      <point x="82" y="303"/>
      <point x="156" y="87"/>
    </contour>
  </outline>
</glyph>
<glyph name="upsilon" format="2">
  <advance width="593"/>
  <unicode hex="03C5"/>
  <anchor x="297" y="526" name="top"/>
  <outline>
    <contour>
      <point x="297" y="-14" type="curve" smooth="yes"/>
      <point x="452" y="-14"/>
      <point x="528" y="60"/>
      <point x="528" y="227" type="curve" smooth="yes"/>
      <point x="528" y="526" type="line"/>
      <point x="379" y="526" type="line"/>
      <point x="379" y="244" type="line" smooth="yes"/>
      <point x="379" y="152"/>
      <point x="361" y="114"/>
      <point x="297" y="114" type="curve" smooth="yes"/>
      <point x="233" y="114"/>
      <point x="214" y="152"/>
      <point x="214" y="244" type="curve" smooth="yes"/>
      <point x="214" y="526" type="line"/>
      <point x="65" y="526" type="line"/>
      <point x="65" y="227" type="line" smooth="yes"/>
      <point x="65" y="60"/>
      <point x="142" y="-14"/>
    </contour>
  </outline>
</glyph>
<glyph name="afii10024" format="2">
  <advance width="983"/>
  <unicode hex="0416"/>
  <anchor x="963" y="0" name="bottomright"/>
  <anchor x="492" y="693" name="top"/>
  <outline>
    <contour>
      <point x="10" y="0" type="curve"/>
      <point x="183" y="0" type="line"/>
      <point x="266" y="126"/>
      <point x="319" y="198"/>
      <point x="415" y="310" type="curve"/>
      <point x="415" y="0" type="line"/>
      <point x="567" y="0" type="line"/>
      <point x="567" y="310" type="line"/>
      <point x="660" y="209"/>
      <point x="716" y="125"/>
      <point x="799" y="0" type="curve"/>
      <point x="973" y="0" type="line"/>
      <point x="896" y="137"/>
      <point x="808" y="265"/>
      <point x="700" y="365" type="curve"/>
      <point x="806" y="479"/>
      <point x="874" y="568"/>
      <point x="970" y="693" type="curve"/>
      <point x="783" y="693" type="line"/>
      <point x="711" y="589"/>
      <point x="647" y="514"/>
      <point x="567" y="415" type="curve"/>
      <point x="567" y="693" type="line"/>
      <point x="415" y="693" type="line"/>
      <point x="415" y="415" type="line"/>
      <point x="336" y="510"/>
      <point x="279" y="581"/>
      <point x="199" y="693" type="curve"/>
      <point x="11" y="693" type="line"/>
      <point x="96" y="578"/>
      <point x="172" y="479"/>
      <point x="284" y="364" type="curve"/>
      <point x="186" y="277"/>
      <point x="88" y="137"/>
    </contour>
  </outline>
</glyph>
<glyph name="afii10068" format="2">
  <advance width="453"/>
  <unicode hex="0433"/>
  <anchor x="433" y="0" name="bottomright"/>
  <anchor x="227" y="526" name="top"/>
  <outline>
    <contour>
      <point x="70" y="0" type="line"/>
      <point x="219" y="0" type="line"/>
      <point x="219" y="404" type="line"/>
      <point x="443" y="404" type="line"/>
      <point x="443" y="526" type="line"/>
      <point x="70" y="526" type="line"/>
    </contour>
  </outline>
</glyph>
<glyph name="uni048C" format="2">
  <advance width="660"/>
  <unicode hex="048C"/>
  <outline>
    <contour>
      <point x="293" y="-7" type="curve" smooth="yes"/>
      <point x="500" y="-7"/>
      <point x="615" y="68"/>
      <point x="615" y="221" type="curve" smooth="yes"/>
      <point x="615" y="386"/>
      <point x="495" y="447"/>
      <point x="290" y="447" type="curve" smooth="yes"/>
      <point x="273" y="447"/>
      <point x="256" y="447"/>
      <point x="239" y="447" type="curve"/>
      <point x="239" y="518" type="line"/>
      <point x="355" y="518" type="line"/>
      <point x="355" y="628" type="line"/>
      <point x="239" y="628" type="line"/>
      <point x="239" y="693" type="line"/>
      <point x="90" y="693" type="line"/>
      <point x="90" y="628" type="line"/>
      <point x="10" y="628" type="line"/>
      <point x="10" y="518" type="line"/>
      <point x="90" y="518" type="line"/>
      <point x="90" y="16" type="line"/>
      <point x="162" y="-1"/>
      <point x="237" y="-7"/>
    </contour>
    <contour>
      <point x="301" y="126" type="curve" smooth="yes"/>
      <point x="274" y="126"/>
      <point x="254" y="127"/>
      <point x="239" y="128" type="curve"/>
      <point x="239" y="318" type="line"/>
      <point x="254" y="318"/>
      <point x="270" y="318"/>
      <point x="285" y="318" type="curve" smooth="yes"/>
      <point x="392" y="318"/>
      <point x="457" y="300"/>
      <point x="457" y="220" type="curve" smooth="yes"/>
      <point x="457" y="144"/>
      <point x="383" y="126"/>
    </contour>
  </outline>
</glyph>
<glyph name="uni04A8" format="2">
  <advance width="800"/>
  <unicode hex="04A8"/>
  <outline>
    <contour>
      <point x="722" y="-185" type="curve"/>
      <point x="742" y="-59" type="line"/>
      <point x="657" y="-50"/>
      <point x="590" y="-34"/>
      <point x="543" y="5" type="curve"/>
      <point x="700" y="45"/>
      <point x="765" y="158"/>
      <point x="765" y="273" type="curve" smooth="yes"/>
      <point x="765" y="402"/>
      <point x="699" y="499"/>
      <point x="555" y="499" type="curve" smooth="yes"/>
      <point x="398" y="499"/>
      <point x="312" y="394"/>
      <point x="312" y="234" type="curve" smooth="yes"/>
      <point x="312" y="199"/>
      <point x="313" y="167"/>
      <point x="320" y="135" type="curve"/>
      <point x="228" y="161"/>
      <point x="212" y="236"/>
      <point x="212" y="329" type="curve" smooth="yes"/>
      <point x="212" y="478"/>
      <point x="265" y="578"/>
      <point x="433" y="578" type="curve" smooth="yes"/>
      <point x="472" y="578"/>
      <point x="513" y="569"/>
      <point x="542" y="554" type="curve"/>
      <point x="579" y="678" type="line"/>
      <point x="536" y="697"/>
      <point x="479" y="709"/>
      <point x="430" y="709" type="curve" smooth="yes"/>
      <point x="150" y="709"/>
      <point x="50" y="528"/>
      <point x="50" y="348" type="curve" smooth="yes"/>
      <point x="50" y="176"/>
      <point x="127" y="9"/>
      <point x="375" y="-7" type="curve"/>
      <point x="436" y="-100"/>
      <point x="543" y="-168"/>
    </contour>
    <contour>
      <point x="473" y="125" type="curve"/>
      <point x="468" y="152"/>
      <point x="465" y="183"/>
      <point x="465" y="220" type="curve" smooth="yes"/>
      <point x="465" y="335"/>
      <point x="509" y="365"/>
      <point x="549" y="365" type="curve" smooth="yes"/>
      <point x="589" y="365"/>
      <point x="616" y="331"/>
      <point x="616" y="268" type="curve" smooth="yes"/>
      <point x="616" y="200"/>
      <point x="585" y="138"/>
    </contour>
  </outline>
</glyph>
<glyph name="uni04CC" format="2">
  <advance width="568"/>
  <unicode hex="04CC"/>
  <outline>
    <contour>
      <point x="251" y="-145" type="line"/>
      <point x="378" y="-145" type="line"/>
      <point x="378" y="0" type="line"/>
      <point x="498" y="0" type="line"/>
      <point x="498" y="526" type="line"/>
      <point x="349" y="526" type="line"/>
      <point x="349" y="316" type="line"/>
      <point x="329" y="313"/>
      <point x="299" y="311"/>
      <point x="287" y="311" type="curve" smooth="yes"/>
      <point x="228" y="311"/>
      <point x="194" y="328"/>
      <point x="194" y="379" type="curve" smooth="yes"/>
      <point x="194" y="526" type="line"/>
      <point x="45" y="526" type="line"/>
      <point x="45" y="378" type="line" smooth="yes"/>
      <point x="45" y="234"/>
      <point x="134" y="189"/>
      <point x="270" y="189" type="curve" smooth="yes"/>
      <point x="286" y="189"/>
      <point x="322" y="192"/>
      <point x="349" y="196" type="curve"/>
      <point x="349" y="117" type="line"/>
      <point x="251" y="117" type="line"/>
    </contour>
  </outline>
</glyph>
<glyph name="uni1FFD" format="2">
  <advance width="286"/>
  <unicode hex="1FFD"/>
  <anchor x="136" y="776" name="_top"/>
  <anchor x="136" y="789" name="top"/>
  <outline>
    <contour>
      <point x="56" y="579" type="line"/>
      <point x="267" y="686" type="line"/>
      <point x="203" y="789" type="line"/>
      <point x="5" y="658" type="line"/>
    </contour>
  </outline>
</glyph>
<glyph name="dieresis_grave.cap" format="2">
  <advance width="458"/>
  <outline>
    <contour>
      <point x="241" y="792" type="line"/>
      <point x="291" y="851" type="line"/>
      <point x="169" y="962" type="line"/>
      <point x="110" y="890" type="line"/>
    </contour>
    <contour>
      <point x="94" y="732" type="curve" smooth="yes"/>
      <point x="129" y="732"/>
      <point x="158" y="756"/>
      <point x="158" y="795" type="curve" smooth="yes"/>
      <point x="158" y="834"/>
      <point x="129" y="858"/>
      <point x="94" y="858" type="curve" smooth="yes"/>
      <point x="59" y="858"/>
      <point x="30" y="834"/>
      <point x="30" y="795" type="curve" smooth="yes"/>
      <point x="30" y="756"/>
      <point x="59" y="732"/>
    </contour>
    <contour>
      <point x="354" y="732" type="curve" smooth="yes"/>
      <point x="390" y="732"/>
      <point x="418" y="756"/>
      <point x="418" y="795" type="curve" smooth="yes"/>
      <point x="418" y="834"/>
      <point x="390" y="858"/>
      <point x="354" y="858" type="curve" smooth="yes"/>
      <point x="319" y="858"/>
      <point x="290" y="834"/>
      <point x="290" y="795" type="curve" smooth="yes"/>
      <point x="290" y="756"/>
      <point x="319" y="732"/>
    </contour>
  </outline>
</glyph>
<glyph name="revcommaaccent" format="2">
  <advance width="217"/>
  <outline>
    <contour>
      <point x="37" y="599" type="curve"/>
      <point x="159" y="599" type="line"/>
      <point x="159" y="604"/>
      <point x="159" y="608"/>
      <point x="159" y="613" type="curve"/>
      <point x="159" y="672"/>
      <point x="180" y="700"/>
      <point x="221" y="725" type="curve"/>
      <point x="172" y="793" type="line"/>
      <point x="86" y="771"/>
      <point x="33" y="717"/>
      <point x="36" y="620" type="curve" smooth="yes"/>
      <point x="36" y="613"/>
      <point x="36" y="606"/>
    </contour>
  </outline>
</glyph>
<glyph name="tilde_macron" format="2">
  <advance width="351"/>
  <outline>
    <contour>
      <point x="86" y="588" type="line"/>
      <point x="97" y="608"/>
      <point x="110" y="625"/>
      <point x="133" y="625" type="curve" smooth="yes"/>
      <point x="150" y="625"/>
      <point x="166" y="619"/>
      <point x="182" y="612" type="curve" smooth="yes"/>
      <point x="201" y="604"/>
      <point x="220" y="596"/>
      <point x="241" y="596" type="curve" smooth="yes"/>
      <point x="294" y="596"/>
      <point x="329" y="648"/>
      <point x="343" y="683" type="curve"/>
      <point x="289" y="718" type="line"/>
      <point x="278" y="698"/>
      <point x="264" y="681"/>
      <point x="241" y="681" type="curve" smooth="yes"/>
      <point x="225" y="681"/>
      <point x="210" y="687"/>
      <point x="195" y="693" type="curve" smooth="yes"/>
      <point x="175" y="701"/>
      <point x="156" y="711"/>
      <point x="134" y="711" type="curve" smooth="yes"/>
      <point x="81" y="711"/>
      <point x="42" y="668"/>
      <point x="31" y="632" type="curve"/>
    </contour>
    <contour>
      <point x="57" y="740" type="line"/>
      <point x="317" y="740" type="line"/>
      <point x="317" y="820" type="line"/>
      <point x="57" y="820" type="line"/>
    </contour>
  </outline>
</glyph>
